<svg width="25" height="26" viewBox="0 0 25 26" fill="none" xmlns="http://www.w3.org/2000/svg">
<path d="M10.75 15.4028L8.0625 12.7153C7.83333 12.4862 7.54167 12.3716 7.1875 12.3716C6.83333 12.3716 6.54167 12.4862 6.3125 12.7153C6.08333 12.9445 5.96875 13.2362 5.96875 13.5903C5.96875 13.9445 6.08333 14.2362 6.3125 14.4653L9.875 18.0278C10.125 18.2778 10.4167 18.4028 10.75 18.4028C11.0833 18.4028 11.375 18.2778 11.625 18.0278L18.6875 10.9653C18.9167 10.7362 19.0312 10.4445 19.0312 10.0903C19.0312 9.73616 18.9167 9.4445 18.6875 9.21533C18.4583 8.98617 18.1667 8.87158 17.8125 8.87158C17.4583 8.87158 17.1667 8.98617 16.9375 9.21533L10.75 15.4028ZM12.5 25.6528C10.7708 25.6528 9.14583 25.3245 7.625 24.6678C6.10417 24.0112 4.78125 23.1207 3.65625 21.9966C2.53125 20.8716 1.64083 19.5487 0.985 18.0278C0.329167 16.507 0.000833333 14.882 0 13.1528C0 11.4237 0.328333 9.79867 0.985 8.27783C1.64167 6.757 2.53208 5.43408 3.65625 4.30908C4.78125 3.18408 6.10417 2.29367 7.625 1.63783C9.14583 0.981999 10.7708 0.653665 12.5 0.652832C14.2292 0.652832 15.8542 0.981165 17.375 1.63783C18.8958 2.2945 20.2187 3.18492 21.3437 4.30908C22.4687 5.43408 23.3596 6.757 24.0162 8.27783C24.6729 9.79867 25.0008 11.4237 25 13.1528C25 14.882 24.6717 16.507 24.015 18.0278C23.3583 19.5487 22.4679 20.8716 21.3437 21.9966C20.2187 23.1216 18.8958 24.0124 17.375 24.6691C15.8542 25.3257 14.2292 25.6537 12.5 25.6528Z" fill="#FF0000"/>
</svg>
